<svg width="55" height="38" viewBox="0 0 55 38" fill="none" xmlns="http://www.w3.org/2000/svg">
<g id="Maestro">
<rect id="Rectangle" x="0.5" y="0.523926" width="54" height="36.9762" rx="3.5" fill="white" stroke="#F3F3F3"/>
<path id="Path" d="M32.5355 27.5345H22.7198V10.0044H32.5355V27.5345Z" fill="#6C6BBD"/>
<path id="Path_2" d="M23.3487 18.768C23.3487 15.212 25.0242 12.0443 27.6333 10.003C25.7253 8.51024 23.3173 7.61927 20.7003 7.61927C14.5049 7.61927 9.48276 12.6107 9.48276 18.768C9.48276 24.9254 14.5049 29.9167 20.7003 29.9167C23.3173 29.9167 25.7253 29.0258 27.6333 27.533C25.0242 25.4917 23.3487 22.3241 23.3487 18.768" fill="#EB001B"/>
<path id="Path_3" d="M45.7739 18.768C45.7739 24.9254 40.7517 29.9167 34.5563 29.9167C31.9393 29.9167 29.5313 29.0258 27.6226 27.533C30.2325 25.4917 31.9079 22.3241 31.9079 18.768C31.9079 15.212 30.2325 12.0443 27.6226 10.003C29.5313 8.51024 31.9393 7.61927 34.5563 7.61927C40.7517 7.61927 45.7739 12.6107 45.7739 18.768" fill="#0099DF"/>
</g>
</svg>
