<svg width="55" height="38" viewBox="0 0 55 38" fill="none" xmlns="http://www.w3.org/2000/svg">
<g id="MasterCard">
<rect id="Rectangle" x="0.5" y="0.523926" width="54" height="36.9762" rx="3.5" fill="white" stroke="#F3F3F3"/>
<path id="Shape" fill-rule="evenodd" clip-rule="evenodd" d="M40.6824 25.6676V23.4607H40.1505V24.7408C39.9673 24.5047 39.6818 24.3713 39.3834 24.3824C38.6772 24.3824 38.1048 24.9555 38.1048 25.6625C38.1048 26.3694 38.6772 26.9426 39.3834 26.9426C39.6818 26.9536 39.9673 26.8202 40.1505 26.5841V26.8811H40.6824V25.6676ZM24.8179 24.4438H25.6873V24.9226H24.823V26.049C24.823 26.2948 24.9202 26.4587 25.1759 26.4587C25.3419 26.4461 25.5021 26.3915 25.6413 26.2999L25.7947 26.7557C25.5953 26.8802 25.3649 26.9459 25.1298 26.9451C24.5008 26.9451 24.2809 26.6072 24.2809 26.0388V24.9226H23.7848V24.4438H24.2809V23.7014H24.8179V24.4438ZM17.7448 26.899V25.3629C17.7629 25.1016 17.6678 24.8451 17.4837 24.6588C17.2997 24.4726 17.0445 24.3747 16.7833 24.39C16.4391 24.3674 16.1098 24.5342 15.9241 24.8253C15.7548 24.5429 15.4447 24.3759 15.1161 24.39C14.8299 24.3756 14.5575 24.5139 14.4001 24.7536V24.4515H13.8682V26.899H14.4052V25.5421C14.382 25.3727 14.4357 25.2017 14.5514 25.0759C14.6672 24.9501 14.833 24.8826 15.0035 24.8918C15.3564 24.8918 15.5354 25.1223 15.5354 25.537V26.899H16.0724V25.5421C16.0502 25.3729 16.1042 25.2025 16.2197 25.0769C16.3353 24.9513 16.5005 24.8836 16.6708 24.8918C17.0339 24.8918 17.2078 25.1223 17.2078 25.537V26.899H17.7448ZM38.8362 31.9477H38.3477L38.3503 29.0701H37.9872V33.6784H38.3708V32.2678H38.8592L40.1377 33.6784H40.6006L39.143 32.0885L40.575 30.6676H40.1147L38.8362 31.9477ZM27.8661 30.9416C27.7843 31.0164 27.7137 31.1026 27.6564 31.1976L27.6436 29.0854H27.2805V33.6938H27.6436V31.9785C27.6424 31.8396 27.6693 31.702 27.7229 31.5739C27.7725 31.4548 27.8456 31.3469 27.9377 31.2565C28.0293 31.1673 28.138 31.0976 28.2573 31.0517C28.3829 31.0033 28.5165 30.979 28.6511 30.98C28.7904 30.9773 28.929 30.9999 29.0603 31.0465C29.1748 31.0881 29.2787 31.1546 29.3646 31.2411C29.4501 31.3288 29.5148 31.4347 29.5538 31.5509C29.5981 31.6828 29.6197 31.8214 29.6177 31.9605V33.6938H29.9834V31.8479C29.9866 31.6728 29.9553 31.4988 29.8913 31.3358C29.8351 31.1914 29.7478 31.0612 29.6356 30.9544C29.5195 30.8477 29.3829 30.7658 29.2341 30.7137C29.0699 30.656 28.8968 30.6274 28.7227 30.6292C28.6195 30.6293 28.5167 30.6405 28.4158 30.6625C28.3141 30.6848 28.2154 30.7192 28.1218 30.7649C28.0288 30.8117 27.9427 30.8711 27.8661 30.9416ZM24.5308 29.1494C24.7153 29.1496 24.8992 29.1711 25.0788 29.2134C25.256 29.2541 25.4277 29.316 25.5902 29.3978C25.7434 29.4757 25.8861 29.5729 26.0147 29.6871C26.1406 29.799 26.2499 29.9283 26.3394 30.0711L26.0147 30.2887C25.9379 30.1713 25.8459 30.0645 25.7411 29.9713C25.6356 29.8769 25.5188 29.796 25.3933 29.7306C25.2636 29.6637 25.1262 29.613 24.9842 29.5796C24.8359 29.5438 24.684 29.5257 24.5315 29.5258C24.2769 29.5236 24.0243 29.5706 23.7874 29.664C23.5636 29.7517 23.36 29.8841 23.189 30.0532C23.017 30.2258 22.8814 30.4313 22.7901 30.6574C22.5959 31.1598 22.5959 31.7167 22.7901 32.2191C22.8813 32.4452 23.017 32.6507 23.189 32.8233C23.36 32.9924 23.5636 33.1248 23.7874 33.2125C24.0243 33.3059 24.2769 33.3529 24.5315 33.3507C24.683 33.3512 24.8341 33.334 24.9816 33.2995C25.2661 33.237 25.5301 33.1031 25.7487 32.9104C25.8542 32.8168 25.9463 32.7091 26.0224 32.5903L26.342 32.8233C26.249 32.9627 26.1381 33.0893 26.0121 33.1997C25.8838 33.3116 25.7421 33.4071 25.5902 33.4838C25.4328 33.5643 25.2662 33.6254 25.0941 33.6656C24.6076 33.7766 24.099 33.7391 23.634 33.5581C23.3631 33.4508 23.1162 33.2907 22.9077 33.087C22.7002 32.8805 22.5367 32.6341 22.427 32.3625C22.1949 31.7674 22.1949 31.1066 22.427 30.5115C22.5367 30.2399 22.7002 29.9934 22.9077 29.7869C23.1162 29.5832 23.3631 29.4231 23.634 29.3159C23.9196 29.2038 24.224 29.1473 24.5308 29.1494ZM24.5308 29.1494L24.5213 29.1494H24.5315L24.5308 29.1494ZM17.3255 29.2006C17.6677 29.1955 18.0083 29.2483 18.333 29.3568C18.6172 29.4508 18.8785 29.6034 19.1001 29.8048C19.3112 30.0019 19.4762 30.2432 19.5834 30.5115C19.8092 31.1104 19.8092 31.7712 19.5834 32.3702C19.4763 32.6385 19.3113 32.8798 19.1001 33.0768C18.8785 33.2782 18.6172 33.4308 18.333 33.5248C18.0083 33.6333 17.6677 33.6861 17.3255 33.681H15.6915V29.2006H17.3255ZM13.9602 33.681H14.3515V29.2006H13.9602V33.681ZM41.066 33.5299H41.0097V33.681H40.9816V33.5299H40.9253V33.5018H41.0685L41.066 33.5299ZM41.2859 33.681H41.2578V33.5351L41.2067 33.6631H41.176L41.1248 33.5351V33.681H41.0967V33.5018H41.1402L41.1913 33.6298L41.2425 33.5018H41.2859V33.681ZM16.0827 33.3098V29.5719L17.328 29.577C17.6206 29.5719 17.9119 29.616 18.1898 29.7076C18.424 29.7864 18.6385 29.9148 18.8189 30.0839C18.9904 30.2494 19.1224 30.4516 19.205 30.6753C19.3782 31.1727 19.3782 31.7141 19.205 32.2114C19.1225 32.4345 18.9905 32.6358 18.8189 32.8003C18.6381 32.9688 18.4237 33.0971 18.1898 33.1766C17.9114 33.27 17.6191 33.315 17.3255 33.3098H16.0827ZM32.3716 30.6292C32.5633 30.6273 32.7532 30.6657 32.9291 30.7419C33.0978 30.8156 33.2494 30.9237 33.374 31.0593C33.5029 31.2011 33.6036 31.3662 33.6707 31.5458C33.7451 31.7438 33.7833 31.9537 33.7832 32.1653V32.2447V32.3164H31.2618C31.2717 32.4777 31.3116 32.6357 31.3795 32.7824C31.4409 32.9142 31.5278 33.0325 31.6352 33.1305C31.7401 33.2252 31.8626 33.2982 31.9957 33.3456C32.1344 33.3954 32.2806 33.4205 32.4279 33.4198C32.6224 33.4231 32.8153 33.3838 32.993 33.3046C33.1602 33.2267 33.3125 33.1201 33.4431 32.9897L33.6374 33.2457C33.549 33.336 33.4513 33.4167 33.3459 33.4864C33.2503 33.5485 33.1483 33.6 33.0416 33.64C32.9399 33.6777 32.8345 33.7043 32.7271 33.7194C32.6203 33.7344 32.5127 33.7421 32.4049 33.7424C32.1975 33.7449 31.9916 33.7066 31.7988 33.6298C31.6194 33.5578 31.4567 33.4498 31.3206 33.3123C31.1845 33.1723 31.0783 33.0059 31.0087 32.8233C30.9319 32.6224 30.8937 32.4087 30.8962 32.1935C30.8937 31.98 30.9319 31.768 31.0087 31.5688C31.0758 31.383 31.1793 31.2124 31.313 31.067C31.4471 30.9283 31.608 30.8186 31.786 30.7444C31.9742 30.6633 32.177 30.6214 32.3819 30.6216L32.3716 30.6292ZM31.9523 31.0312C32.0856 30.9775 32.2281 30.9505 32.3717 30.9518C32.6389 30.95 32.8957 31.0551 33.0851 31.2437C33.1801 31.3387 33.2564 31.4507 33.3102 31.5739C33.369 31.7095 33.4045 31.8541 33.415 32.0015H31.2645C31.2798 31.8551 31.3196 31.7123 31.3821 31.5791C31.4399 31.4557 31.5197 31.3438 31.6173 31.2488C31.7142 31.1556 31.8279 31.0817 31.9523 31.0312ZM36.0131 30.6292C36.2262 30.6273 36.4375 30.6682 36.6345 30.7496C36.8216 30.827 36.9886 30.946 37.1229 31.0977L36.8876 31.3538C36.7743 31.239 36.6408 31.1462 36.4938 31.0798C36.3397 31.0132 36.1733 30.98 36.0054 30.9825C35.8482 30.9818 35.6924 31.0131 35.5477 31.0747C35.4091 31.1345 35.2838 31.2216 35.1795 31.3307C35.0692 31.4402 34.9822 31.5708 34.9237 31.7148C34.8064 32.0275 34.8064 32.3723 34.9237 32.6851C35.0335 32.9709 35.2552 33.1994 35.5375 33.3174C35.6821 33.3792 35.8379 33.4106 35.9952 33.4096C36.1651 33.4115 36.3335 33.3766 36.4887 33.3072C36.6366 33.241 36.7717 33.1491 36.8876 33.0358L37.1152 33.2918C36.9803 33.4428 36.8134 33.5618 36.6268 33.64C36.4307 33.7213 36.2202 33.7623 36.008 33.7603C35.7951 33.7629 35.5838 33.7229 35.3866 33.6426C35.0176 33.4924 34.7264 33.1972 34.5811 32.8259C34.4299 32.4285 34.4299 31.9893 34.5811 31.5919C34.7255 31.2194 35.0169 30.9231 35.3866 30.7726C35.5846 30.6794 35.7995 30.628 36.0182 30.6216L36.0131 30.6292ZM30.2237 24.3824C29.9595 24.3746 29.7123 24.5121 29.5793 24.7408V24.4438H29.0525V26.8914H29.5844V25.5191C29.5844 25.1146 29.7583 24.8893 30.0959 24.8893C30.2096 24.8877 30.3226 24.9086 30.4283 24.9507L30.5919 24.4387C30.4705 24.3952 30.3425 24.3727 30.2135 24.3721L30.2237 24.3824ZM22.3682 24.3824C22.7183 24.3703 23.0644 24.4592 23.3655 24.6384L23.1302 25.0685C22.8967 24.934 22.6325 24.8617 22.3631 24.8586C22.0716 24.8586 21.8977 24.9814 21.8977 25.1453C21.8977 25.3092 22.0818 25.3552 22.3119 25.386L22.5677 25.4218C23.0995 25.4986 23.4217 25.6881 23.4217 26.154C23.4217 26.62 23.0126 26.9528 22.3068 26.9528C21.9291 26.9632 21.558 26.8519 21.2482 26.6353L21.5039 26.2206C21.7386 26.3949 22.025 26.4851 22.3171 26.4766C22.6802 26.4766 22.8745 26.3691 22.8745 26.1796C22.8745 26.0414 22.7364 25.9646 22.4449 25.9236L22.1892 25.8878C21.642 25.8109 21.3453 25.5652 21.3453 25.1658C21.3453 24.6793 21.7494 24.3824 22.3682 24.3824ZM37.6113 24.3824C37.3471 24.3746 37.0999 24.5121 36.9669 24.7408V24.4438H36.4401V26.8914H36.972V25.5191C36.972 25.1146 37.1459 24.8893 37.4835 24.8893C37.5972 24.8877 37.7102 24.9086 37.8159 24.9507L37.9795 24.4387C37.8581 24.3952 37.7301 24.3727 37.6011 24.3721L37.6113 24.3824ZM31.1278 26.591C30.8796 26.3473 30.7454 26.0102 30.7582 25.6625V25.6522C30.7454 25.3044 30.8796 24.9674 31.1278 24.7237C31.376 24.4801 31.7153 24.3524 32.0623 24.3721C32.3817 24.3559 32.6955 24.46 32.942 24.664L32.6863 25.0941C32.5024 24.9537 32.2782 24.8765 32.047 24.8739C31.6393 24.9069 31.3253 25.2478 31.3253 25.6573C31.3253 26.0668 31.6393 26.4077 32.047 26.4408C32.2782 26.4382 32.5024 26.361 32.6863 26.2206L32.942 26.6507C32.6955 26.8547 32.3817 26.9588 32.0623 26.9426C31.7153 26.9622 31.376 26.8346 31.1278 26.591ZM35.7395 25.6625V24.4387H35.2076V24.7357C35.0244 24.4996 34.7389 24.3662 34.4405 24.3772C33.7343 24.3772 33.1619 24.9504 33.1619 25.6573C33.1619 26.3643 33.7343 26.9374 34.4405 26.9374C34.7389 26.9485 35.0244 26.8151 35.2076 26.579V26.876H35.7395V25.6625ZM34.5257 24.9666C34.124 24.9515 33.7839 25.2607 33.7603 25.6625C33.7467 25.867 33.8191 26.0678 33.9599 26.2166C34.1007 26.3654 34.2972 26.4485 34.5019 26.4459C34.9038 26.4438 35.2304 26.1204 35.2369 25.7179C35.2434 25.3155 34.9275 24.9817 34.5257 24.9666ZM27.3418 24.3824C26.6356 24.3923 26.0712 24.9734 26.0811 25.6804C26.091 26.3874 26.6714 26.9525 27.3776 26.9426C27.7424 26.9554 28.0993 26.8333 28.38 26.5995L28.1243 26.2052C27.9223 26.3674 27.6722 26.4574 27.4134 26.4612C27.0478 26.4927 26.7236 26.2272 26.682 25.8622H28.5002V25.6573C28.5002 24.8893 28.0245 24.3772 27.3392 24.3772L27.3418 24.3824ZM27.7741 25.0272C27.658 24.9158 27.5025 24.8551 27.3417 24.8586H27.3315C26.9898 24.8469 26.7013 25.1107 26.682 25.4525H27.9606C27.9572 25.2916 27.8901 25.1386 27.7741 25.0272ZM39.4687 24.9717C39.0669 24.9566 38.7269 25.2658 38.7032 25.6676C38.6896 25.8721 38.762 26.073 38.9028 26.2217C39.0436 26.3705 39.2401 26.4536 39.4448 26.451C39.8468 26.4489 40.1734 26.1255 40.1799 25.7231C40.1864 25.3206 39.8704 24.9868 39.4687 24.9717ZM20.7444 25.6676V24.4438H20.2125V24.7408C20.0293 24.5047 19.7438 24.3713 19.4454 24.3824C18.7392 24.3824 18.1668 24.9555 18.1668 25.6625C18.1668 26.3694 18.7392 26.9426 19.4454 26.9426C19.7438 26.9536 20.0293 26.8202 20.2125 26.5841V26.8811H20.7444V25.6676ZM19.5305 24.9717C19.1288 24.9566 18.7887 25.2658 18.765 25.6676C18.7515 25.8721 18.8238 26.073 18.9646 26.2217C19.1055 26.3705 19.3019 26.4536 19.5066 26.451C19.9086 26.4489 20.2352 26.1255 20.2417 25.7231C20.2482 25.3206 19.9322 24.9868 19.5305 24.9717ZM41.5672 26.5355C41.6005 26.5351 41.6335 26.5412 41.6644 26.5534C41.6938 26.5654 41.7206 26.5828 41.7437 26.6046C41.7661 26.6267 41.7843 26.6527 41.7974 26.6814C41.8235 26.7418 41.8235 26.8104 41.7974 26.8709C41.7843 26.8996 41.7661 26.9256 41.7437 26.9477C41.7206 26.9695 41.6938 26.9869 41.6644 26.9989C41.6338 27.0124 41.6007 27.0194 41.5672 27.0194C41.4683 27.0186 41.3786 26.9608 41.3371 26.8709C41.3112 26.8104 41.3112 26.7419 41.3371 26.6814C41.3501 26.6527 41.3683 26.6267 41.3908 26.6046C41.4138 26.5828 41.4407 26.5654 41.47 26.5534C41.501 26.5412 41.534 26.5351 41.5672 26.5355ZM41.6414 26.9528C41.618 26.9631 41.5928 26.9683 41.5672 26.9682V26.9707C41.5416 26.9698 41.5163 26.9637 41.4931 26.9528C41.4701 26.9433 41.4493 26.9294 41.4317 26.9118C41.3654 26.8394 41.3654 26.7282 41.4317 26.6558C41.4492 26.6382 41.4701 26.6243 41.4931 26.6149C41.5165 26.6048 41.5417 26.5996 41.5672 26.5995C41.5927 26.5994 41.618 26.6046 41.6414 26.6149C41.6634 26.6246 41.6834 26.6385 41.7002 26.6558C41.7665 26.7282 41.7665 26.8394 41.7002 26.9118C41.6833 26.9291 41.6634 26.943 41.6414 26.9528ZM41.5825 26.6635C41.6064 26.6623 41.6299 26.6696 41.649 26.684C41.6649 26.6971 41.6734 26.7172 41.672 26.7377C41.6727 26.7549 41.6662 26.7716 41.6541 26.7838C41.6393 26.7973 41.6204 26.8054 41.6004 26.8069L41.6746 26.8913H41.6157L41.5467 26.8069H41.5237V26.8913H41.4751V26.6661L41.5825 26.6635ZM41.5263 26.7685V26.707L41.5825 26.7224C41.5925 26.7194 41.6032 26.7194 41.6132 26.7224C41.6168 26.7296 41.6168 26.7382 41.6132 26.7454C41.6168 26.7527 41.6168 26.7612 41.6132 26.7685C41.6032 26.7715 41.5925 26.7715 41.5825 26.7685H41.5263Z" fill="black"/>
<rect id="Rectangle_2" x="23.1942" y="5.79272" width="8.05502" height="14.4932" fill="#FF5F00"/>
<path id="_Path_" d="M23.7055 13.0406C23.7025 10.212 24.9992 7.53917 27.2216 5.79272C23.4472 2.82291 18.027 3.25549 14.7702 6.78645C11.5134 10.3174 11.5134 15.7613 14.7702 19.2922C18.027 22.8232 23.4472 23.2558 27.2216 20.286C24.9999 18.5401 23.7033 15.8684 23.7055 13.0406Z" fill="#EB001B"/>
<path id="Path" d="M42.1171 13.0406C42.117 16.5695 40.1044 19.7885 36.9342 21.3305C33.7639 22.8726 29.9925 22.467 27.2217 20.286C29.4425 18.5386 30.7391 15.8673 30.7391 13.0394C30.7391 10.2115 29.4425 7.54012 27.2217 5.79274C29.9925 3.61174 33.7639 3.20615 36.9342 4.74821C40.1044 6.29028 42.117 9.50928 42.1171 13.0381V13.0406Z" fill="#F79E1B"/>
</g>
</svg>
