<svg width="55" height="38" viewBox="0 0 55 38" fill="none" xmlns="http://www.w3.org/2000/svg">
<g id="UnionPay">
<rect id="Rectangle" x="0.5" y="0.523926" width="54" height="36.9762" rx="3.5" fill="white" stroke="#F3F3F3"/>
<path id="path22" fill-rule="evenodd" clip-rule="evenodd" d="M47.1011 5.72826L36.6196 5.72559C36.6183 5.72559 36.6169 5.72559 36.6169 5.72559C36.6088 5.72559 36.6009 5.72701 36.593 5.72701C35.153 5.77064 33.3597 6.9129 33.033 8.3214L28.0762 30.0143C27.7496 31.4359 28.6382 32.5927 30.0677 32.614H41.0789C42.4866 32.5452 43.8545 31.416 44.1755 30.0235L49.1325 8.33048C49.4644 6.89438 48.5543 5.72826 47.1011 5.72826" fill="#01798A"/>
<path id="path20" fill-rule="evenodd" clip-rule="evenodd" d="M28.0764 30.0143L33.0332 8.32139C33.3599 6.91289 35.1532 5.77063 36.5932 5.727L32.4257 5.72433L24.9173 5.7229C23.4734 5.75211 21.6567 6.90238 21.3302 8.32139L16.3719 30.0143C16.0441 31.4359 16.934 32.5927 18.3625 32.614H30.0679C28.6384 32.5927 27.7498 31.4359 28.0764 30.0143" fill="#024381"/>
<path id="path16" fill-rule="evenodd" clip-rule="evenodd" d="M16.3719 30.0143L21.3301 8.32144C21.6566 6.90243 23.4734 5.75216 24.9173 5.72295L15.2986 5.72046C13.8466 5.72046 11.9849 6.88391 11.6531 8.32144L6.69484 30.0143C6.66467 30.1467 6.64793 30.2765 6.63794 30.4034V30.8059C6.735 31.8422 7.5352 32.5968 8.68545 32.6141H18.3625C16.9339 32.5928 16.044 31.436 16.3719 30.0143" fill="#DD0228"/>
<path id="path24" fill-rule="evenodd" clip-rule="evenodd" d="M25.1201 21.5298H25.3021C25.4694 21.5298 25.5819 21.4743 25.6347 21.3644L26.1077 20.6642H27.3744L27.1102 21.1247H28.629L28.4364 21.8303H26.6291C26.421 22.1401 26.1648 22.2857 25.8567 22.2684H24.9153L25.1201 21.5298H25.1201ZM24.9122 22.5411H28.2396L28.0275 23.3076H26.6894L26.4852 24.0474H27.7873L27.5752 24.8138H26.2731L25.9706 25.9071C25.8957 26.0898 25.9942 26.172 26.2644 26.1533H27.3257L27.1291 26.8655H25.0915C24.7053 26.8655 24.5728 26.647 24.694 26.209L25.0807 24.8138H24.2484L24.4598 24.0474H25.2923L25.4963 23.3076H24.7006L24.9122 22.5411H24.9122ZM30.223 20.659L30.1706 21.1077C30.1706 21.1077 30.7983 20.6416 31.3684 20.6416H33.4749L32.6693 23.5258C32.6025 23.8555 32.316 24.0195 31.81 24.0195H29.4225L28.8632 26.0448C28.831 26.1533 28.8766 26.209 28.997 26.209H29.4668L29.2941 26.8376H28.0998C27.6414 26.8376 27.4507 26.7013 27.5263 26.4274L29.1067 20.659H30.223H30.223H30.223ZM32.007 21.4743H30.1268L29.9019 22.2526C29.9019 22.2526 30.215 22.029 30.7383 22.021C31.2601 22.0129 31.8557 22.021 31.8557 22.021L32.007 21.4743V21.4743ZM31.3258 23.2797C31.4648 23.2983 31.5426 23.2439 31.5519 23.1155L31.667 22.7053H29.7839L29.626 23.2797H31.3258V23.2797ZM30.0556 24.2115H31.141L31.1208 24.6761H31.4098C31.5558 24.6761 31.6282 24.6298 31.6282 24.5385L31.7137 24.238H32.6158L32.4954 24.6761C32.3935 25.0414 32.1234 25.232 31.6844 25.2507H31.1062L31.1035 26.0448C31.0929 26.172 31.2092 26.2368 31.4487 26.2368H31.9921L31.8167 26.8655H30.5133C30.148 26.8827 29.9688 26.7105 29.9726 26.3453L30.0556 24.2115V24.2115Z" fill="white"/>
<path id="path28" fill-rule="evenodd" clip-rule="evenodd" d="M16.9032 16.8163C16.756 17.5297 16.4148 18.0777 15.8854 18.4668C15.3609 18.8494 14.6843 19.0412 13.856 19.0412C13.0765 19.0412 12.505 18.8453 12.1403 18.4522C11.8874 18.1729 11.7615 17.8182 11.7615 17.3893C11.7615 17.212 11.783 17.0214 11.8258 16.8163L12.7084 12.6072H14.0413L13.1708 16.7686C13.144 16.8838 13.1333 16.991 13.1347 17.0876C13.1333 17.3008 13.1868 17.4755 13.2952 17.6117C13.4531 17.8143 13.7094 17.9148 14.0661 17.9148C14.4762 17.9148 14.8141 17.8156 15.0764 17.6157C15.3388 17.4172 15.51 17.1353 15.587 16.7686L16.4603 12.6072H17.7864L16.9032 16.8163" fill="white"/>
<path id="path34" fill-rule="evenodd" clip-rule="evenodd" d="M22.501 15.1603H23.5449L22.7272 18.9168H21.6854L22.501 15.1603M22.8295 13.7917H23.8828L23.686 14.7036H22.6329L22.8295 13.7917" fill="white"/>
<path id="path36" fill-rule="evenodd" clip-rule="evenodd" d="M24.469 18.631C24.196 18.3729 24.0582 18.0248 24.0568 17.5827C24.0568 17.5072 24.0615 17.4213 24.0716 17.3272C24.0817 17.2319 24.0944 17.1392 24.1124 17.0533C24.2362 16.4431 24.4999 15.9586 24.906 15.6012C25.3115 15.2425 25.8007 15.0625 26.3734 15.0625C26.8425 15.0625 27.2145 15.1922 27.4869 15.4517C27.7592 15.7125 27.8956 16.0645 27.8956 16.512C27.8956 16.5886 27.8897 16.6773 27.8796 16.7726C27.8676 16.8693 27.853 16.9619 27.836 17.0533C27.7151 17.6542 27.4522 18.1333 27.046 18.4842C26.6397 18.8376 26.152 19.0135 25.5832 19.0135C25.1121 19.0135 24.7414 18.8865 24.469 18.631M26.4585 17.8871C26.6425 17.6899 26.7743 17.3907 26.8546 16.9924C26.8667 16.9302 26.8773 16.8653 26.884 16.8005C26.8906 16.7369 26.8933 16.6773 26.8933 16.6231C26.8933 16.3914 26.8337 16.2115 26.714 16.0844C26.595 15.9559 26.4257 15.8925 26.2069 15.8925C25.9178 15.8925 25.6823 15.9929 25.4977 16.1942C25.3115 16.3955 25.1797 16.6999 25.0967 17.1049C25.0854 17.1671 25.076 17.2293 25.0674 17.2902C25.0607 17.3524 25.0587 17.4106 25.06 17.4636C25.06 17.6939 25.1196 17.8713 25.2393 17.997C25.3583 18.1228 25.5269 18.185 25.7485 18.185C26.0389 18.185 26.2745 18.0857 26.4585 17.8871" fill="white"/>
<path id="path26" fill-rule="evenodd" clip-rule="evenodd" d="M34.6687 21.5615L34.9204 20.6853H36.193L36.1381 21.0069C36.1381 21.0069 36.7885 20.6853 37.2568 20.6853C37.7253 20.6853 38.8305 20.6853 38.8305 20.6853L38.5804 21.5615H38.3328L37.1457 25.694H37.3933L37.1578 26.5146H36.9102L36.8072 26.8707H35.5747L35.6775 26.5146H33.246L33.483 25.694H33.7266L34.9148 21.5615H34.6687H34.6687ZM36.0417 21.5615L35.7178 22.6799C35.7178 22.6799 36.272 22.4696 36.7497 22.41C36.8552 22.0195 36.9931 21.5615 36.9931 21.5615H36.0417L36.0417 21.5615ZM35.5678 23.2042L35.2428 24.3756C35.2428 24.3756 35.857 24.0765 36.2785 24.0513C36.4002 23.5986 36.5221 23.2042 36.5221 23.2042H35.5678V23.2042ZM35.806 25.694L36.0496 24.8442H35.0996L34.8548 25.694H35.806V25.694ZM38.8841 20.6311H40.0805L40.1313 21.0678C40.1234 21.1789 40.1902 21.232 40.3321 21.232H40.5435L40.3296 21.9718H39.4502C39.1144 21.989 38.9417 21.8621 38.9257 21.588L38.8841 20.6311V20.6311ZM38.5336 22.2181H42.4091L42.1817 23.0123H40.9478L40.7362 23.7508H41.9689L41.74 24.5437H40.3671L40.0565 25.0084H40.7285L40.8837 25.9388C40.9022 26.0315 40.9852 26.0765 41.1271 26.0765H41.3358L41.1165 26.8428H40.3777C39.9949 26.8614 39.797 26.7343 39.7808 26.4604L39.6027 25.6106L38.9913 26.5146C38.8467 26.7701 38.6245 26.8892 38.3249 26.8707H37.1966L37.4161 26.1042H37.7681C37.9127 26.1042 38.033 26.0407 38.1414 25.9123L39.0984 24.5437H37.8645L38.0931 23.7508H39.4315L39.6443 23.0123H38.3047L38.5336 22.2181V22.2181Z" fill="white"/>
<path id="path30" fill-rule="evenodd" clip-rule="evenodd" d="M18.131 15.159H19.0725L18.9648 15.7017L19.0999 15.5469C19.4051 15.2239 19.7758 15.0637 20.2134 15.0637C20.6095 15.0637 20.8952 15.1776 21.0746 15.4065C21.2512 15.6356 21.2994 15.9519 21.2158 16.3583L20.6972 18.9182H19.7296L20.198 16.5979C20.2462 16.3583 20.2329 16.1796 20.1585 16.0644C20.085 15.9492 19.9443 15.8924 19.7416 15.8924C19.4927 15.8924 19.2833 15.9691 19.1126 16.1213C18.9413 16.2749 18.8283 16.488 18.7727 16.7593L18.3411 18.9182H17.3716L18.131 15.159" fill="white"/>
<path id="path32" fill-rule="evenodd" clip-rule="evenodd" d="M28.9272 15.159H29.8694L29.7625 15.7017L29.8961 15.5469C30.2015 15.2239 30.5735 15.0637 31.0098 15.0637C31.4059 15.0637 31.6922 15.1776 31.8701 15.4065C32.0456 15.6356 32.0964 15.9519 32.0107 16.3583L31.4941 18.9182H30.5252L30.9937 16.5979C31.0418 16.3583 31.0285 16.1796 30.9548 16.0644C30.8785 15.9492 30.7406 15.8924 30.5387 15.8924C30.2897 15.8924 30.081 15.9691 29.9083 16.1213C29.7369 16.2749 29.6233 16.488 29.5698 16.7593L29.1363 18.9182H28.1679L28.9272 15.159" fill="white"/>
<path id="path38" fill-rule="evenodd" clip-rule="evenodd" d="M33.5846 12.8293H36.3201C36.846 12.8293 37.2528 12.9472 37.5324 13.1788C37.8108 13.4131 37.9501 13.7494 37.9501 14.1874V14.2006C37.9501 14.284 37.9445 14.378 37.9366 14.4799C37.9231 14.5805 37.9056 14.6824 37.8831 14.7883C37.7627 15.3681 37.4829 15.834 37.0507 16.1874C36.617 16.5395 36.1033 16.7169 35.5118 16.7169H34.0449L33.5913 18.9181H32.3212L33.5846 12.8293M34.2684 15.658H35.4851C35.8021 15.658 36.0537 15.5851 36.2372 15.4409C36.4192 15.2953 36.5397 15.073 36.6065 14.7712C36.6171 14.7155 36.6237 14.6653 36.6318 14.619C36.636 14.5753 36.6412 14.5315 36.6412 14.4893C36.6412 14.2735 36.5638 14.1173 36.4084 14.0193C36.2532 13.92 36.0097 13.8724 35.6723 13.8724H34.6392L34.2684 15.658" fill="white"/>
<path id="path40" fill-rule="evenodd" clip-rule="evenodd" d="M43.635 19.6449C43.2335 20.4894 42.8508 20.9817 42.6261 21.2107C42.401 21.4371 41.9556 21.9639 40.8823 21.9241L40.9746 21.2796C41.8778 21.0043 42.3663 19.7639 42.6447 19.2147L42.3128 15.1697L43.0114 15.1604H43.5975L43.6605 17.6978L44.7591 15.1604H45.8713L43.635 19.6449" fill="white"/>
<path id="path42" fill-rule="evenodd" clip-rule="evenodd" d="M40.5249 15.466L40.083 15.7666C39.6214 15.4092 39.1999 15.1881 38.3864 15.5613C37.2781 16.0696 36.3521 19.9678 39.4033 18.6838L39.5773 18.8876L40.7777 18.9181L41.566 15.376L40.5249 15.466M39.8424 17.4025C39.6496 17.9651 39.2189 18.337 38.8816 18.2311C38.5444 18.1279 38.4239 17.5851 38.6193 17.0213C38.8119 16.4574 39.2455 16.0868 39.5801 16.1927C39.9173 16.296 40.039 16.8386 39.8424 17.4025" fill="white"/>
<path id="path14" fill-rule="evenodd" clip-rule="evenodd" d="M36.617 5.73267L32.4257 5.72437L36.5931 5.74216C36.601 5.74216 36.6089 5.73267 36.617 5.73267" fill="#E02F41"/>
<path id="path18" fill-rule="evenodd" clip-rule="evenodd" d="M32.4257 5.74656L24.9749 5.72046C24.9562 5.72046 24.9367 5.72876 24.9173 5.73708L32.4257 5.74656" fill="#2E4F7D"/>
</g>
</svg>
