<svg width="55" height="38" viewBox="0 0 55 38" fill="none" xmlns="http://www.w3.org/2000/svg">
<g id="Visa">
<rect id="Rectangle" x="0.5" y="0.523926" width="54" height="36.9762" rx="3.5" fill="white" stroke="#F3F3F3"/>
<path id="polygon9" d="M24.4198 26.0692H20.7581L23.0484 12.7769H26.7099L24.4198 26.0692Z" fill="#15195A"/>
<path id="path11" d="M37.6937 13.1018C36.9715 12.8328 35.8259 12.5359 34.4094 12.5359C30.7933 12.5359 28.2469 14.3458 28.2313 16.9335C28.2012 18.8426 30.0544 19.903 31.4405 20.5396C32.8572 21.1901 33.3388 21.6147 33.3388 22.1945C33.3243 23.085 32.194 23.4954 31.1397 23.4954C29.6778 23.4954 28.8945 23.2838 27.7041 22.7884L27.2219 22.576L26.7095 25.5598C27.5683 25.9271 29.1506 26.253 30.7933 26.2673C34.6355 26.2673 37.1369 24.4853 37.1665 21.7278C37.1811 20.2146 36.2026 19.0552 34.0929 18.1078C32.8121 17.4996 32.0278 17.0895 32.0278 16.4672C32.0428 15.9014 32.6912 15.322 34.1369 15.322C35.3273 15.2936 36.202 15.5622 36.8645 15.831L37.1957 15.9721L37.6937 13.1018V13.1018V13.1018Z" fill="#15195A"/>
<path id="path13" fill-rule="evenodd" clip-rule="evenodd" d="M44.2484 12.7769H47.0808L50.0349 26.069H46.6444C46.6444 26.069 46.3126 24.5417 46.2075 24.0751H41.5061C41.3702 24.4284 40.7376 26.069 40.7376 26.069H36.8954L42.3345 13.8797C42.7114 13.0171 43.375 12.7769 44.2484 12.7769ZM44.0228 17.6411C44.0228 17.6411 42.8624 20.5966 42.5609 21.3602H45.6045C45.4539 20.6956 44.7605 17.5139 44.7605 17.5139L44.5046 16.3685C44.3968 16.6634 44.241 17.0689 44.1358 17.3424C44.0646 17.5278 44.0166 17.6526 44.0228 17.6411Z" fill="#15195A"/>
<path id="Combined Shape" fill-rule="evenodd" clip-rule="evenodd" d="M4.89218 12.7769H10.7836C11.5821 12.8049 12.2301 13.0452 12.441 13.8942L13.7212 20.0009C13.7214 20.0015 13.7216 20.0021 13.7217 20.0027L14.1136 21.841L17.6997 12.7769H21.5717L15.816 26.0551H11.9438L8.68012 14.5053C7.55403 13.8873 6.26883 13.3903 4.83191 13.0454L4.89218 12.7769Z" fill="#15195A"/>
</g>
</svg>
